<svg xmlns="http://www.w3.org/2000/svg"  viewBox="0 0 24 24" width="48px" height="48px"><path d="M21 14.5c-.9762573 0-3 .5436401-4.0258789.8383789-.1361084-1.4348145-1.9746094-1.942688-3.8745117-2.3286133-.8671875-.1757812-1.5126953-.4868164-2.1367188-.7880859C10.1933594 11.8505859 9.4667969 11.5 8.5 11.5c-1.1071167 0-2.1160278.2264404-2.6853638.3831177-.1505127-.5236816-.5775146-.9458008-1.1447144-1.0588989l-4.0722656-.8144531c-.1455078-.0292969-.2988281.0087891-.4150391.1035156C.0673828 10.2084961 0 10.3500977 0 10.5v8C0 18.7763672.2236328 19 .5 19h3.1328125c.6174316 0 1.1436157-.3927612 1.369812-.9441528C6.1230469 18.5899658 11.3006592 21 13.5 21c1.9394531 0 5.9326172-1.9628906 8.5742188-3.2617188.6884766-.3383789 1.2578125-.6186523 1.6269531-.7802734C23.8828125 16.8779297 24 16.6982422 24 16.5 24 15.3222656 22.7666016 14.5 21 14.5zM3.6328125 18H1v-6.8901367l3.4746094.6948242c.2597656.0522461.4345703.2983398.3964844.5610352l-.7431641 5.2050781C4.0927734 17.8154297 3.8798828 18 3.6328125 18zM21.6328125 16.8408203C19.2294922 18.0224609 15.2070312 20 13.5 20c-1.8183594 0-6.5947266-2.1293945-8.28125-2.949707-.0018921-.0009155-.0039673-.0006104-.0058594-.0014648l.5883179-4.1204834C6.1655273 12.8143921 7.2786255 12.5 8.5 12.5c.7382812 0 1.3076172.2749023 2.0292969.6225586.6474609.3125 1.3818359.6665039 2.3710938.8676758C15.0732422 14.4306641 16 14.8823242 16 15.5c0 .1220703-.0371094.1972656-.1318359.2680664-.3173828.237793-1.5595703.637207-6.2255859-.7475586-.2666016-.0771484-.5429688.0727539-.6220703.3374023-.078125.2646484.0722656.5429688.3369141.621582 2.3037109.6826172 4.0644531 1.0229492 5.3125 1.0229492.8134766 0 1.4101562-.1445312 1.7958984-.4331055.0332031-.0247803.0574951-.0551147.0877075-.0817871.0314331-.003479.0623779.0001831.0939331-.0095215C17.53125 16.2060547 20.0361328 15.5 21 15.5c.8154297 0 1.6738281.2475586 1.9257812.7128906C22.5771484 16.3769531 22.1367188 16.59375 21.6328125 16.8408203zM15.6484375 11.8549805C15.7451172 11.9516602 15.8730469 12 16 12s.2548828-.0483398.3515625-.1450195l3.7695312-3.7338867C20.6874866 7.5541992 21 6.8012695 21 6c0-1.6542969-1.3457031-3-3-3-.75 0-1.4541016.2763672-2 .7724609C15.4541016 3.2763672 14.75 3 14 3c-1.6542969 0-3 1.3457031-3 3 0 .8012695.3124876 1.5541992.8808594 2.1225586L15.6484375 11.8549805zM14 4c.6318359 0 1.2138672.2958984 1.5986328.8125.1894531.2529297.6132812.2529297.8027344 0C16.7861328 4.2958984 17.3681641 4 18 4c1.1025391 0 2 .8969727 2 2 0 .5341797-.2080078 1.0361328-.5839844 1.4125977L16 10.7963867l-3.4140625-3.3823242C12.2080078 7.0361328 12 6.5341797 12 6 12 4.8969727 12.8974609 4 14 4z"/></svg>