<svg xmlns="http://www.w3.org/2000/svg" xmlns:xlink="http://www.w3.org/1999/xlink" viewBox="0,0,256,256" width="50px" height="50px"><defs><clipPath id="clip-1"><path d="M0,256v-256h256v131.24312c-7.81367,-32.30793 -37.05981,-56.49112 -71.68,-56.49112c-40.5504,0 -73.728,33.1776 -73.728,73.728c0,40.5504 33.1776,73.728 73.728,73.728c34.62019,0 63.86633,-24.18319 71.68,-56.49112v90.28312z" id="overlayBgMask" fill="none"></path></clipPath></defs><g clip-path="url(#clip-1)" fill="none" fill-rule="nonzero" stroke="none" stroke-width="1" stroke-linecap="butt" stroke-linejoin="miter" stroke-miterlimit="10" stroke-dasharray="" stroke-dashoffset="0" font-family="none" font-weight="none" font-size="none" text-anchor="none" style="mix-blend-mode: normal"><g transform="scale(5.12,5.12)" fill="#000000"><path d="M15,7c-7.16797,0 -13,5.83203 -13,13c0,14.76172 16.69531,22.04688 22.375,26.78125l0.625,0.53125l0.625,-0.53125c5.67969,-4.73437 22.375,-12.01953 22.375,-26.78125c0,-7.16797 -5.83203,-13 -13,-13c-4.05469,0 -7.61719,1.92578 -10,4.84375c-2.38281,-2.91797 -5.94531,-4.84375 -10,-4.84375zM15,9c3.83594,0 7.1875,1.96875 9.15625,4.9375l0.84375,1.25l0.84375,-1.25c1.96875,-2.96875 5.32031,-4.9375 9.15625,-4.9375c6.08594,0 11,4.91406 11,11c0,12.89844 -14.40625,19.57422 -21,24.78125c-6.59375,-5.20703 -21,-11.88281 -21,-24.78125c0,-6.08594 4.91406,-11 11,-11z"></path></g></g><g fill="#000000" fill-rule="nonzero" stroke="none" stroke-width="1" stroke-linecap="butt" stroke-linejoin="miter" stroke-miterlimit="10" stroke-dasharray="" stroke-dashoffset="0" font-family="none" font-weight="none" font-size="none" text-anchor="none" style="mix-blend-mode: normal"><g transform="translate(122.88,87.04) scale(6.144,6.144)" id="overlay"><g id="Layer_2" font-family="Inter, apple-system, BlinkMacSystemFont, &quot;Helvetica Neue&quot;, &quot;Segoe UI&quot;, &quot;Fira Sans&quot;, Roboto, Oxygen, Ubuntu, &quot;Droid Sans&quot;, Arial, sans-serif" font-weight="400" font-size="16" text-anchor="start"></g><g id="Layer_3" font-family="Inter, apple-system, BlinkMacSystemFont, &quot;Helvetica Neue&quot;, &quot;Segoe UI&quot;, &quot;Fira Sans&quot;, Roboto, Oxygen, Ubuntu, &quot;Droid Sans&quot;, Arial, sans-serif" font-weight="400" font-size="16" text-anchor="start"></g><g id="Layer_1"><path d="M9,7.699c0,2.102 4.5,1.301 4.5,4.801c0,2.5 -2.398,2.801 -2.801,2.801v1.398h-1.097v-1.398c-0.402,0 -3,-0.301 -3,-3.301h2c0,0.301 0,1.699 1.5,1.699c1.297,0 1.297,-1 1.297,-1.199c0,-2.199 -4.5,-1.301 -4.5,-4.801c0,-2.098 1.902,-2.801 2.801,-2.801v-1.5h1.102v1.5c0.698,0.102 2.596,0.602 2.596,3.204h-2c0,-0.602 -0.098,-1.703 -1.297,-1.703c-1.101,0.101 -1.101,1.101 -1.101,1.3z" visibility="hidden"></path><path d="M10,0c-5.5,0 -10,4.5 -10,10c0,5.5 4.5,10 10,10c5.5,0 10,-4.5 10,-10c0,-5.5 -4.5,-10 -10,-10zM10,18c-4.398,0 -8,-3.602 -8,-8c0,-4.398 3.602,-8 8,-8c4.398,0 8,3.602 8,8c0,4.398 -3.602,8 -8,8z"></path><path d="M13.45,11.754c0,-1.441 -0.753,-2.247 -2.476,-2.615l-1.071,-0.229c-0.963,-0.209 -1.363,-0.52 -1.363,-1.054c0,-0.647 0.556,-1.066 1.399,-1.066c0.825,0 1.436,0.47 1.501,1.155h1.854c-0.04,-1.382 -1.004,-2.397 -2.444,-2.705v-1.213h-1.7v1.17c-1.59,0.258 -2.59,1.326 -2.59,2.85c0,1.422 0.79,2.311 2.363,2.647l1.13,0.248c1.029,0.222 1.429,0.527 1.429,1.073c0,0.647 -0.616,1.098 -1.495,1.098c-0.975,0 -1.639,-0.451 -1.711,-1.155h-1.902c0.042,1.521 1.089,2.542 2.776,2.769v1.252h1.7v-1.293c1.632,-0.293 2.6,-1.345 2.6,-2.932z"></path></g></g></g></svg>