<svg xmlns="http://www.w3.org/2000/svg" xmlns:xlink="http://www.w3.org/1999/xlink" viewBox="0,0,256,256" width="64px" height="64px"><g fill="#000000" fill-rule="nonzero" stroke="none" stroke-width="1" stroke-linecap="butt" stroke-linejoin="miter" stroke-miterlimit="10" stroke-dasharray="" stroke-dashoffset="0" font-family="none" font-weight="none" font-size="none" text-anchor="none" style="mix-blend-mode: normal"><g transform="translate(138.16681,308.1331) rotate(-140) scale(3.55556,3.55556)"><path d="M36,10c-2.209,0 -4,1.791 -4,4v34.55859l-9.67383,-9.36719c-1.585,-1.535 -4.11725,-1.4952 -5.65625,0.0918c-1.536,1.587 -1.4952,4.11925 0.0918,5.65625l16.45703,15.93359c0.775,0.751 1.77725,1.12695 2.78125,1.12695c1.004,0 2.00625,-0.37595 2.78125,-1.12695l16.45703,-15.93359c1.587,-1.536 1.6278,-4.06925 0.0918,-5.65625c-1.538,-1.587 -4.07025,-1.6278 -5.65625,-0.0918l-9.67383,9.36719v-34.55859c0,-2.209 -1.791,-4 -4,-4z"></path></g></g></svg>