<svg xmlns="http://www.w3.org/2000/svg"  viewBox="0 0 50 50" width="50px" height="50px"><path d="M 36.931641 3 C 35.051973 3.034256 33.541872 3.5806451 32.513672 4.5722656 C 31.485471 5.5638862 31.005996 6.9406621 30.970703 8.3847656 A 1.0001 1.0001 0 0 0 30.970703 8.3867188 C 30.947963 9.3276996 31.142985 10.176746 31.367188 11.111328 C 31.109095 11.500644 30.927433 11.973057 31.001953 12.597656 A 1.0001 1.0001 0 0 0 31.001953 12.599609 C 31.088323 13.317113 31.286475 13.869507 31.615234 14.289062 C 31.765834 14.481255 31.986492 14.495574 32.179688 14.611328 C 32.383767 15.285613 32.66176 15.925578 33.050781 16.4375 C 33.299548 16.764858 33.554396 17.057247 33.787109 17.294922 C 33.842929 17.351932 33.910803 17.386022 33.958984 17.435547 C 33.963084 17.94347 33.964884 18.420138 33.927734 18.947266 C 33.807053 19.210594 33.436787 19.527627 32.642578 19.855469 C 32.193587 20.040808 31.655437 20.225656 31.085938 20.425781 C 31.116058 20.154188 31.138675 19.86749 31.142578 19.546875 A 1.0001 1.0001 0 0 0 31.142578 19.544922 C 31.153535 18.600962 30.999897 17.598511 30.470703 16.714844 C 29.980135 15.895675 29.082108 15.274055 27.960938 15.042969 C 27.248843 14.331598 26.247629 14 25.121094 14 A 1.0001 1.0001 0 0 0 25.103516 14 C 23.223848 14.03426 21.713747 14.580645 20.685547 15.572266 C 19.657346 16.563886 19.179824 17.940662 19.144531 19.384766 A 1.0001 1.0001 0 0 0 19.144531 19.386719 C 19.135978 19.74063 19.166305 20.080617 19.208984 20.417969 C 18.529014 20.186453 17.867261 19.977496 17.320312 19.771484 C 16.49924 19.462222 16.112198 19.141235 16.015625 18.947266 C 15.979005 18.423092 15.980105 17.948121 15.984375 17.441406 C 16.032755 17.391916 16.100177 17.357806 16.15625 17.300781 C 16.389705 17.06335 16.644558 16.772604 16.894531 16.445312 C 17.285191 15.93382 17.564233 15.292005 17.769531 14.617188 C 17.964173 14.501219 18.18669 14.488017 18.337891 14.294922 C 18.666474 13.875296 18.862772 13.322039 18.949219 12.605469 L 18.949219 12.603516 C 19.024417 11.976415 18.84168 11.499985 18.580078 11.109375 C 18.768182 10.404878 18.955547 9.6371186 18.96875 8.5527344 C 18.979707 7.6087278 18.826069 6.6043702 18.296875 5.7207031 C 17.806292 4.9015096 16.90833 4.2798952 15.787109 4.0488281 C 15.075252 3.3376723 14.075543 3.0058594 12.949219 3.0058594 A 1.0001 1.0001 0 0 0 12.929688 3.0058594 C 11.050064 3.0406672 9.5416461 3.5864117 8.5136719 4.578125 C 7.4856977 5.5698383 7.0065684 6.9467597 6.9707031 8.390625 A 1.0001 1.0001 0 0 0 6.9707031 8.3925781 C 6.9479604 9.3335621 7.1429852 10.182606 7.3671875 11.117188 C 7.1090946 11.506503 6.9274326 11.978916 7.0019531 12.603516 A 1.0001 1.0001 0 0 0 7.0019531 12.605469 C 7.0883521 13.323247 7.2858237 13.87731 7.6152344 14.296875 C 7.7665407 14.489591 7.9893958 14.501483 8.1835938 14.617188 C 8.3878938 15.290396 8.6622217 15.932045 9.0507812 16.443359 C 9.2995481 16.770717 9.5543959 17.061153 9.7871094 17.298828 C 9.8429304 17.355838 9.9108025 17.389928 9.9589844 17.439453 C 9.9630844 17.949962 9.9653544 18.426658 9.9277344 18.957031 C 9.8270553 19.176052 9.5865433 19.424651 9.0078125 19.699219 C 8.3950315 19.989941 7.5330708 20.260055 6.6230469 20.591797 C 5.7130229 20.923539 4.7447703 21.3187 3.890625 21.962891 C 3.0364797 22.607081 2.305056 23.546814 2.0253906 24.787109 A 1.0001 1.0001 0 1 0 3.9746094 25.226562 C 4.144444 24.473311 4.5168953 23.995607 5.09375 23.560547 C 5.6706047 23.125487 6.4616177 22.779461 7.3085938 22.470703 C 8.1555698 22.161945 9.0485623 21.892387 9.8632812 21.505859 C 10.678 21.119332 11.499555 20.573322 11.857422 19.611328 A 1.0001 1.0001 0 0 0 11.916016 19.351562 C 11.999709 18.421319 11.96875 17.767589 11.96875 17 A 1.0001 1.0001 0 0 0 11.433594 16.115234 C 11.596596 16.200674 11.384244 16.071404 11.216797 15.900391 C 11.049354 15.729378 10.840889 15.490814 10.644531 15.232422 C 10.251815 14.715638 9.9443506 14.050555 9.9277344 13.894531 A 1.0001 1.0001 0 0 0 9.1796875 13.03125 C 9.1465375 12.98486 9.0423225 12.816145 8.9882812 12.367188 C 8.9754619 12.259742 8.9921498 12.206392 9.0078125 12.175781 A 1.0001 1.0001 0 0 0 9.3769531 11.125 C 9.0867012 10.00797 8.949701 9.3084159 8.9707031 8.4394531 C 8.9972058 7.3883807 9.3077224 6.5912246 9.9023438 6.0175781 C 10.494611 5.4462028 11.439194 5.0374471 12.949219 5.0058594 L 12.951172 5.0058594 C 13.959592 5.0065987 14.475682 5.3305666 14.541016 5.4453125 A 1.0001 1.0001 0 0 0 15.273438 5.9414062 C 16.002946 6.0426757 16.322225 6.314214 16.582031 6.7480469 C 16.841837 7.1818798 16.976793 7.8363035 16.96875 8.5292969 C 16.95496 9.6620848 16.773735 10.518638 16.59375 11.058594 A 1.0001 1.0001 0 0 0 16.945312 12.177734 C 16.960829 12.208612 16.977484 12.260492 16.964844 12.365234 C 16.910714 12.815336 16.806354 12.98502 16.773438 13.03125 A 1.0001 1.0001 0 0 0 16.025391 13.894531 C 16.009061 14.047892 15.701445 14.71355 15.306641 15.230469 C 15.109239 15.488928 14.898857 15.727181 14.730469 15.898438 C 14.56208 16.069693 14.348153 16.199947 14.509766 16.115234 A 1.0001 1.0001 0 0 0 13.974609 17 C 13.974609 17.765716 13.943554 18.421302 14.027344 19.351562 A 1.0001 1.0001 0 0 0 14.085938 19.611328 C 14.520235 20.775762 15.604025 21.263653 16.615234 21.644531 C 17.53041 21.989239 18.491739 22.259401 19.302734 22.580078 C 19.190344 22.871401 19.128521 23.201536 19.175781 23.597656 A 1.0001 1.0001 0 0 0 19.175781 23.599609 C 19.262151 24.317113 19.45835 24.869507 19.787109 25.289062 C 19.938538 25.482312 20.161072 25.497332 20.355469 25.613281 C 20.559787 26.2864 20.836089 26.926237 21.224609 27.4375 C 21.473376 27.764858 21.726271 28.057247 21.958984 28.294922 C 22.014804 28.351932 22.082678 28.386022 22.130859 28.435547 C 22.134959 28.942814 22.136559 29.419114 22.099609 29.945312 C 21.974609 30.218702 21.573148 30.549348 20.730469 30.888672 C 20.148583 31.122981 19.433767 31.350923 18.689453 31.626953 C 18.831842 31.040381 18.958316 30.403821 18.96875 29.546875 C 18.97971 28.602868 18.826069 27.598511 18.296875 26.714844 C 17.805682 25.894672 16.90646 25.271284 15.783203 25.041016 C 15.0715 24.332176 14.073172 24 12.949219 24 A 1.0001 1.0001 0 0 0 12.931641 24 C 11.051973 24.03426 9.5418725 24.580645 8.5136719 25.572266 C 7.4854713 26.563886 7.0059957 27.940662 6.9707031 29.384766 A 1.0001 1.0001 0 0 0 6.9707031 29.386719 C 6.9479601 30.3277 7.1429852 31.176746 7.3671875 32.111328 C 7.1090946 32.500644 6.9274326 32.973057 7.0019531 33.597656 A 1.0001 1.0001 0 0 0 7.0019531 33.599609 C 7.0883191 34.317113 7.286475 34.869507 7.6152344 35.289062 C 7.7658339 35.481254 7.9864928 35.495574 8.1796875 35.611328 C 8.3837677 36.285613 8.66176 36.925578 9.0507812 37.4375 C 9.2995481 37.764858 9.5543959 38.057247 9.7871094 38.294922 C 9.8429304 38.351932 9.9108025 38.386022 9.9589844 38.435547 C 9.9630744 38.944782 9.9651744 39.422183 9.9277344 39.951172 C 9.8272429 40.170028 9.5845566 40.41879 9.0058594 40.693359 C 8.3931573 40.984063 7.5331247 41.256153 6.6230469 41.587891 C 5.7129691 41.919628 4.7428958 42.314805 3.8886719 42.958984 C 3.034448 43.603164 2.3031117 44.540915 2.0234375 45.78125 A 1.0002389 1.0002389 0 0 0 3.9746094 46.222656 C 4.1444352 45.469397 4.5168177 44.989758 5.09375 44.554688 C 5.6706823 44.119616 6.4595934 43.775559 7.3066406 43.466797 C 8.1536878 43.158035 9.0485771 42.888499 9.8632812 42.501953 C 10.677985 42.115407 11.497934 41.567657 11.855469 40.605469 A 1.0001 1.0001 0 0 0 11.914062 40.345703 C 11.997753 39.415459 11.96875 38.76173 11.96875 37.994141 A 1.0001 1.0001 0 0 0 11.431641 37.109375 C 11.594643 37.194815 11.382281 37.067495 11.214844 36.896484 C 11.047402 36.725472 10.838936 36.486908 10.642578 36.228516 C 10.249862 35.711732 9.9423975 35.044695 9.9257812 34.888672 A 1.0001 1.0001 0 0 0 9.1816406 34.027344 C 9.1487868 33.981569 9.0425432 33.81212 8.9882812 33.361328 C 8.975462 33.253883 8.9921498 33.200532 9.0078125 33.169922 A 1.0001 1.0001 0 0 0 9.3769531 32.119141 C 9.0867012 31.002111 8.949701 30.302556 8.9707031 29.433594 C 8.9964101 28.381697 9.3053412 27.585598 9.9003906 27.011719 C 10.493584 26.439629 11.441059 26.031989 12.955078 26.001953 C 13.958857 26.004353 14.475104 26.324852 14.539062 26.4375 A 1.0001 1.0001 0 0 0 15.271484 26.933594 C 16.000993 27.034863 16.320272 27.308355 16.580078 27.742188 C 16.839884 28.176019 16.976793 28.830444 16.96875 29.523438 C 16.95496 30.656225 16.773735 31.512779 16.59375 32.052734 A 1.0001 1.0001 0 0 0 16.943359 33.169922 C 16.958801 33.20006 16.975813 33.252322 16.962891 33.359375 C 16.908571 33.811047 16.802024 33.981993 16.769531 34.027344 A 1.0001 1.0001 0 0 0 16.025391 34.888672 C 16.009061 35.042033 15.699492 35.707691 15.304688 36.224609 C 15.107285 36.483069 14.898857 36.721322 14.730469 36.892578 C 14.56208 37.063834 14.348153 37.192135 14.509766 37.107422 A 1.0001 1.0001 0 0 0 13.974609 37.994141 C 13.974609 38.759856 13.941601 39.415443 14.025391 40.345703 A 1.0001 1.0001 0 0 0 14.439453 41.068359 C 14.858721 41.714718 15.452851 42.190378 16.105469 42.5 C 16.920188 42.886528 17.815133 43.156086 18.662109 43.464844 C 19.509085 43.773602 20.298145 44.119627 20.875 44.554688 C 21.451855 44.989747 21.824306 45.467499 21.994141 46.220703 A 1.0001 1.0001 0 1 0 23.945312 45.78125 C 23.665647 44.540954 22.93227 43.601222 22.078125 42.957031 C 21.22398 42.312841 20.255727 41.917679 19.345703 41.585938 C 18.435679 41.254196 17.575672 40.984082 16.962891 40.693359 C 16.367114 40.410705 16.106518 40.15303 16.013672 39.929688 C 15.977982 39.411017 15.978182 38.938332 15.982422 38.435547 C 16.031032 38.385837 16.099886 38.352247 16.15625 38.294922 C 16.389705 38.057491 16.644558 37.766744 16.894531 37.439453 C 17.285191 36.927961 17.564233 36.286146 17.769531 35.611328 C 17.963911 35.495402 18.18687 35.481927 18.337891 35.289062 C 18.651008 34.889189 18.841314 34.363567 18.933594 33.695312 C 19.747966 33.370421 20.631197 33.084546 21.476562 32.744141 C 22.508889 32.328452 23.591077 31.783488 24.029297 30.605469 A 1.0001 1.0001 0 0 0 24.087891 30.345703 C 24.171581 29.415459 24.140625 28.76173 24.140625 27.994141 A 1.0001 1.0001 0 0 0 23.605469 27.109375 C 23.768471 27.194815 23.556119 27.067495 23.388672 26.896484 C 23.221229 26.725472 23.012764 26.486908 22.816406 26.228516 C 22.42369 25.711732 22.116226 25.044695 22.099609 24.888672 A 1.0001 1.0001 0 0 0 21.351562 24.025391 C 21.318292 23.978741 21.214229 23.810548 21.160156 23.361328 C 21.147028 23.251296 21.165351 23.197705 21.181641 23.167969 A 1.0001 1.0001 0 0 0 21.550781 22.119141 C 21.260529 21.002111 21.123529 20.302556 21.144531 19.433594 C 21.170241 18.381697 21.479169 17.585598 22.074219 17.011719 C 22.667412 16.439629 23.614887 16.031989 25.128906 16.001953 C 26.130443 16.005053 26.650452 16.324588 26.714844 16.4375 A 1.0001 1.0001 0 0 0 27.445312 16.933594 C 28.174822 17.034863 28.4941 17.308355 28.753906 17.742188 C 29.013712 18.176019 29.150621 18.828491 29.142578 19.521484 C 29.128788 20.654272 28.947563 21.512779 28.767578 22.052734 A 1.0001 1.0001 0 0 0 29.117188 23.167969 C 29.13272 23.197818 29.149745 23.249507 29.136719 23.357422 A 1.0001 1.0001 0 0 0 29.136719 23.359375 C 29.082399 23.810996 28.975866 23.980011 28.943359 24.025391 A 1.0001 1.0001 0 0 0 28.199219 24.886719 C 28.182889 25.04008 27.87332 25.707691 27.478516 26.224609 C 27.281114 26.483069 27.072685 26.721322 26.904297 26.892578 C 26.735908 27.063834 26.521981 27.192135 26.683594 27.107422 A 1.0001 1.0001 0 0 0 26.148438 27.992188 C 26.148438 28.757903 26.115429 29.41349 26.199219 30.34375 A 1.0001 1.0001 0 0 0 26.259766 30.603516 C 26.696065 31.774725 27.787243 32.260901 28.804688 32.642578 C 29.545442 32.92046 30.298086 33.155338 30.998047 33.402344 C 31.000264 33.467803 30.99371 33.528567 31.001953 33.597656 A 1.0001 1.0001 0 0 0 31.001953 33.599609 C 31.088323 34.317113 31.286475 34.869507 31.615234 35.289062 C 31.765834 35.481254 31.986492 35.495574 32.179688 35.611328 C 32.383767 36.285613 32.66176 36.925578 33.050781 37.4375 C 33.299548 37.764858 33.554396 38.057247 33.787109 38.294922 C 33.842929 38.351932 33.910803 38.386022 33.958984 38.435547 C 33.963084 38.944782 33.965184 39.422183 33.927734 39.951172 C 33.827243 40.170028 33.584557 40.41879 33.005859 40.693359 C 32.393157 40.984063 31.533125 41.256153 30.623047 41.587891 C 29.712969 41.919628 28.742896 42.314805 27.888672 42.958984 C 27.034448 43.603164 26.303112 44.540915 26.023438 45.78125 A 1.0002384 1.0002384 0 0 0 27.974609 46.222656 C 28.144435 45.469491 28.516818 44.989757 29.09375 44.554688 C 29.670682 44.119616 30.459593 43.775559 31.306641 43.466797 C 32.153688 43.158035 33.048577 42.888499 33.863281 42.501953 C 34.677985 42.115407 35.497934 41.567657 35.855469 40.605469 A 1.0001 1.0001 0 0 0 35.914062 40.345703 C 35.997752 39.415459 35.96875 38.76173 35.96875 37.994141 A 1.0001 1.0001 0 0 0 35.431641 37.109375 C 35.594643 37.194815 35.382291 37.067495 35.214844 36.896484 C 35.047401 36.725472 34.838936 36.486908 34.642578 36.228516 C 34.249862 35.711732 33.942397 35.044695 33.925781 34.888672 A 1.0001 1.0001 0 0 0 33.181641 34.027344 C 33.148791 33.981574 33.042543 33.81212 32.988281 33.361328 C 32.987758 33.356946 32.988705 33.355799 32.988281 33.351562 A 1.0001 1.0001 0 0 0 33.132812 33.056641 A 1.0001 1.0001 0 0 0 33.376953 32.119141 C 33.086701 31.002111 32.949701 30.302556 32.970703 29.433594 C 32.996413 28.381697 33.305341 27.585598 33.900391 27.011719 C 34.493584 26.439629 35.441059 26.031989 36.955078 26.001953 C 37.958857 26.004353 38.475104 26.324852 38.539062 26.4375 A 1.0001 1.0001 0 0 0 39.271484 26.933594 C 40.000993 27.034863 40.320272 27.308355 40.580078 27.742188 C 40.839884 28.176019 40.976793 28.830444 40.96875 29.523438 C 40.95496 30.656225 40.773735 31.512779 40.59375 32.052734 A 1.0001 1.0001 0 0 0 40.943359 33.169922 C 40.958892 33.199771 40.975917 33.25146 40.962891 33.359375 C 40.908571 33.811047 40.802024 33.981993 40.769531 34.027344 A 1.0001 1.0001 0 0 0 40.025391 34.888672 C 40.009061 35.042033 39.699491 35.707691 39.304688 36.224609 C 39.107284 36.483069 38.898857 36.721322 38.730469 36.892578 C 38.56208 37.063834 38.348153 37.192135 38.509766 37.107422 A 1.0001 1.0001 0 0 0 37.974609 37.994141 C 37.974609 38.759856 37.941601 39.415443 38.025391 40.345703 A 1.0001 1.0001 0 0 0 38.439453 41.068359 C 38.858721 41.714718 39.452851 42.190378 40.105469 42.5 C 40.920188 42.886528 41.815133 43.156086 42.662109 43.464844 C 43.509085 43.773602 44.298145 44.119628 44.875 44.554688 C 45.451855 44.989747 45.824306 45.467499 45.994141 46.220703 A 1.0001 1.0001 0 1 0 47.945312 45.78125 C 47.665647 44.540954 46.93227 43.601222 46.078125 42.957031 C 45.22398 42.312841 44.255727 41.917678 43.345703 41.585938 C 42.435679 41.254196 41.575672 40.984082 40.962891 40.693359 C 40.367114 40.410705 40.106518 40.153029 40.013672 39.929688 C 39.977982 39.411017 39.978182 38.938332 39.982422 38.435547 C 40.031032 38.385837 40.099886 38.352247 40.15625 38.294922 C 40.389705 38.057491 40.644558 37.766744 40.894531 37.439453 C 41.285191 36.927961 41.564233 36.286146 41.769531 35.611328 C 41.963911 35.495402 42.18687 35.481927 42.337891 35.289062 C 42.666474 34.869437 42.862772 34.31618 42.949219 33.599609 L 42.949219 33.597656 C 43.024399 32.970667 42.841555 32.494096 42.580078 32.103516 C 42.768156 31.399048 42.955548 30.631159 42.96875 29.546875 C 42.97971 28.602868 42.826069 27.598511 42.296875 26.714844 C 41.805686 25.894578 40.90646 25.271284 39.783203 25.041016 C 39.0715 24.332176 38.073172 24 36.949219 24 A 1.0001 1.0001 0 0 0 36.931641 24 C 35.051973 24.03426 33.541872 24.580645 32.513672 25.572266 C 31.485471 26.563886 31.005996 27.940662 30.970703 29.384766 A 1.0001 1.0001 0 0 0 30.970703 29.386719 C 30.954433 30.059976 31.063561 30.693758 31.201172 31.337891 C 30.590514 31.13423 30.001874 30.955603 29.505859 30.769531 C 28.675403 30.458 28.283324 30.133651 28.1875 29.939453 C 28.15106 29.416637 28.15198 28.941005 28.15625 28.435547 C 28.20486 28.385837 28.273715 28.352247 28.330078 28.294922 C 28.563533 28.057491 28.818386 27.764791 29.068359 27.4375 C 29.458945 26.926105 29.738026 26.285973 29.943359 25.611328 C 30.137739 25.495402 30.360698 25.481927 30.511719 25.289062 C 30.840638 24.869008 31.036737 24.315295 31.123047 23.597656 C 31.169973 23.208819 31.110868 22.883546 31.001953 22.595703 C 31.783338 22.298776 32.613523 22.029549 33.404297 21.703125 C 34.397921 21.292967 35.431613 20.745188 35.855469 19.605469 A 1.0001 1.0001 0 0 0 35.914062 19.345703 C 35.997752 18.415459 35.96875 17.76173 35.96875 16.994141 A 1.0001 1.0001 0 0 0 35.431641 16.109375 C 35.594643 16.194815 35.382291 16.067495 35.214844 15.896484 C 35.047401 15.725472 34.838936 15.486908 34.642578 15.228516 C 34.249862 14.711732 33.942397 14.044695 33.925781 13.888672 A 1.0001 1.0001 0 0 0 33.181641 13.027344 C 33.148791 12.981574 33.042543 12.81212 32.988281 12.361328 C 32.975462 12.253883 32.99215 12.200532 33.007812 12.169922 A 1.0001 1.0001 0 0 0 33.376953 11.119141 C 33.086701 10.002111 32.949701 9.3025565 32.970703 8.4335938 C 32.996413 7.3816973 33.305341 6.5855982 33.900391 6.0117188 C 34.493584 5.439629 35.441059 5.0319887 36.955078 5.0019531 C 37.958857 5.0043631 38.475103 5.3248516 38.539062 5.4375 A 1.0001 1.0001 0 0 0 39.271484 5.9335938 C 40.000993 6.0348631 40.320272 6.3083546 40.580078 6.7421875 C 40.839884 7.1760204 40.976793 7.8304441 40.96875 8.5234375 C 40.95496 9.6562254 40.773735 10.512779 40.59375 11.052734 A 1.0001 1.0001 0 0 0 40.943359 12.169922 C 40.958892 12.199771 40.975917 12.25146 40.962891 12.359375 C 40.908571 12.811047 40.802024 12.981993 40.769531 13.027344 A 1.0001 1.0001 0 0 0 40.025391 13.888672 C 40.009061 14.042033 39.699492 14.707691 39.304688 15.224609 C 39.107284 15.483069 38.898857 15.721322 38.730469 15.892578 C 38.56208 16.063834 38.348153 16.192135 38.509766 16.107422 A 1.0001 1.0001 0 0 0 37.974609 16.994141 C 37.974609 17.759856 37.941601 18.415443 38.025391 19.345703 A 1.0001 1.0001 0 0 0 38.439453 20.068359 C 38.858721 20.714718 39.452851 21.190378 40.105469 21.5 C 40.920188 21.886528 41.815133 22.156086 42.662109 22.464844 C 43.509085 22.773602 44.298145 23.119628 44.875 23.554688 C 45.451855 23.989746 45.824306 24.467499 45.994141 25.220703 A 1.0001 1.0001 0 1 0 47.945312 24.78125 C 47.665647 23.540954 46.93227 22.601222 46.078125 21.957031 C 45.22398 21.312841 44.255727 20.917679 43.345703 20.585938 C 42.435679 20.254196 41.575672 19.984082 40.962891 19.693359 C 40.367114 19.410705 40.106518 19.153029 40.013672 18.929688 C 39.977982 18.411017 39.978182 17.938332 39.982422 17.435547 C 40.031032 17.385837 40.099886 17.352247 40.15625 17.294922 C 40.389705 17.057491 40.644558 16.766744 40.894531 16.439453 C 41.285191 15.927961 41.564233 15.286146 41.769531 14.611328 C 41.963911 14.495402 42.18687 14.481928 42.337891 14.289062 C 42.666474 13.869438 42.862772 13.31618 42.949219 12.599609 L 42.949219 12.597656 C 43.024399 11.970667 42.841555 11.494096 42.580078 11.103516 C 42.768156 10.399048 42.955548 9.6311588 42.96875 8.546875 C 42.979716 7.6028716 42.826069 6.5985107 42.296875 5.7148438 C 41.805677 4.8946245 40.90646 4.271284 39.783203 4.0410156 C 39.0715 3.3321758 38.073172 3 36.949219 3 A 1.0001 1.0001 0 0 0 36.931641 3 z"/></svg>