<svg xmlns="http://www.w3.org/2000/svg"  viewBox="0 0 48 48" width="48px" height="48px"><path fill="none" stroke="#000" stroke-linecap="round" stroke-miterlimit="10" stroke-width="3" d="M39.7,33.8c1.8-2.8,2.8-6.2,2.8-9.8c0-10.2-8.3-18.5-18.5-18.5l0,0c-5.2,0-9.9,2.1-13.2,5.6"/><path fill="none" stroke="#000" stroke-linecap="round" stroke-miterlimit="10" stroke-width="3" d="M5.9,20.3c-0.2,1.2-0.4,2.4-0.4,3.7c0,10.2,8.3,18.5,18.5,18.5c3.6,0,7-1,9.9-2.8"/><path fill="none" stroke="#000" stroke-miterlimit="10" stroke-width="3" d="M32,23.1L20,16.8c-0.7-0.4-1.5,0.1-1.5,0.9v12.7c0,0.8,0.8,1.2,1.5,0.9L32,24.9C32.7,24.5,32.7,23.5,32,23.1z"/></svg>